<?xml version="1.0" encoding="utf-8"?>
<!-- Generator: Adobe Illustrator 16.0.0, SVG Export Plug-In . SVG Version: 6.00 Build 0)  -->
<!DOCTYPE svg PUBLIC "-//W3C//DTD SVG 1.1//EN" "http://www.w3.org/Graphics/SVG/1.1/DTD/svg11.dtd">
<svg version="1.1" id="Layer_1" xmlns="http://www.w3.org/2000/svg" xmlns:xlink="http://www.w3.org/1999/xlink" x="0px" y="0px"
	 width="595.28px" height="841.89px" viewBox="0 0 595.28 841.89" enable-background="new 0 0 595.28 841.89" xml:space="preserve">
<g>
	<path fill="#FFFFFF" stroke="#000000" stroke-width="7" stroke-miterlimit="10" d="M300.398,352.32
		c9.66-10.651,3.469-12.138,3.469-12.138l-18.084-10.651l-40.129,7.184l-14.367,19.569c0,0-18.827,16.35,2.477,21.552
		c20.508,5.007,39.866,19.893,53.438,48.622c0.327-0.108,0.656-0.215,0.982-0.326C283.375,392.244,291.078,362.598,300.398,352.32z"
		/>
</g>
<g>
	<path fill="#FFFFFF" stroke="#000000" stroke-width="7" stroke-miterlimit="10" d="M252.947,318.502
		c-0.693-1.629-1.312-3.307-1.85-5.033c-0.158-0.504-0.291-1.012-0.432-1.517c-9.985-23.459-35.512-36.517-60.478-30.751
		c-18.349,22.754-25.381,53.945-16.029,83.947c1.763,5.656,4.044,11.005,6.749,16.035c11.243,4.907,24.229,5.959,36.861,2.022
		C245.145,374.671,260.622,345.936,252.947,318.502z"/>
	<path fill="#FFFFFF" stroke="#000000" stroke-width="7" stroke-miterlimit="10" d="M250.665,311.952
		c0.693,1.628,1.312,3.306,1.85,5.032c0.158,0.505,0.29,1.013,0.432,1.519c10.506,24.682,38.214,37.869,64.369,29.716
		c14.809-4.617,26.142-15.144,32.211-28.179c-0.608-2.954-1.363-5.906-2.278-8.846c-10.072-32.313-36.574-54.947-67.452-61.631
		C256.247,260.177,243.576,286.614,250.665,311.952z"/>
	<path fill="#FFFFFF" stroke="#000000" stroke-width="7" stroke-miterlimit="10" d="M250.665,311.952
		c0.141,0.505,0.274,1.013,0.432,1.517c0.538,1.727,1.157,3.404,1.85,5.033c-0.142-0.506-0.274-1.013-0.432-1.519
		C251.978,315.258,251.358,313.58,250.665,311.952z"/>
</g>
<circle fill="none" stroke="#000000" stroke-width="13" stroke-miterlimit="10" cx="260.589" cy="339.54" r="91.49"/>
<path fill="#FFFFFF" stroke="#000000" stroke-width="7" stroke-miterlimit="10" d="M-30.283,182.637"/>
<circle cx="201" cy="332.5" r="36"/>
<circle cx="303" cy="297" r="36"/>
<circle fill="#FFFFFF" cx="309.5" cy="278.5" r="8.5"/>
<circle fill="#FFFFFF" cx="212.5" cy="306" r="8.5"/>
<path fill="none" stroke="#000000" stroke-width="3" stroke-miterlimit="10" d="M246,299c-7.333-23.333-4.667-44,0-48"/>
<path fill="none" stroke="#000000" stroke-width="3" stroke-miterlimit="10" d="M243.183,426.287
	c-12.178-21.211-14.018-41.968-10.319-46.878"/>
<path fill="none" stroke="#000000" stroke-width="3" stroke-miterlimit="10" d="M329.076,394.197
	c-3.829-25.551-18.722-40.439-26.812-39.813"/>
<path fill="none" stroke="#000000" stroke-width="3" stroke-miterlimit="10" d="M212.451,261.865
	c20.95,12.619,32.645,29.866,31.799,35.954"/>
</svg>
